<svg xmlns="http://www.w3.org/2000/svg" version="1.1" xmlns:xlink="http://www.w3.org/1999/xlink" xmlns:svgjs="http://svgjs.dev/svgjs" width="1000" height="831" viewBox="0 0 1000 831"><g transform="matrix(1,0,0,1,-0.10121365339284694,0.3364372469635555)"><svg viewBox="0 0 297 247" data-background-color="#ffffff" preserveAspectRatio="xMidYMid meet" height="831" width="1000" xmlns="http://www.w3.org/2000/svg" xmlns:xlink="http://www.w3.org/1999/xlink"><g id="tight-bounds" transform="matrix(1,0,0,1,0.03006045505767929,-0.09999999999999432)"><svg viewBox="0 0 296.93987908988464 247.2" height="247.2" width="296.93987908988464"><g><svg viewBox="0 0 395.52 329.2671375083437" height="247.2" width="296.93987908988464"><g transform="matrix(1,0,0,1,0,200.02023075386853)"><svg viewBox="0 0 395.52 129.2469067544752" height="129.2469067544752" width="395.52"><g id="textblocktransform"><svg viewBox="0 0 395.52 129.2469067544752" height="129.2469067544752" width="395.52" id="textblock"><g><svg viewBox="0 0 395.52 90.65303385004745" height="90.65303385004745" width="395.52"><g transform="matrix(1,0,0,1,0,0)"><svg width="395.52" viewBox="4.389999866485596 -34.88999938964844 154.3300018310547 35.380001068115234" height="90.65303385004745" data-palette-color="#1e55b3"><path d="M4.39 0L4.39-24.12 7.2-24.12 8.08-22.07Q12.74-24.61 16.58-24.61L16.58-24.61Q18.55-24.61 20.02-23.99 21.48-23.36 22.29-22.42 23.1-21.48 23.57-20.06 24.05-18.63 24.18-17.33 24.32-16.04 24.32-14.38L24.32-14.38 24.32 0 20.31 0 20.31-14.65Q20.31-21 14.84-21L14.84-21Q12.01-21 8.4-19.12L8.4-19.12 8.4 0 4.39 0ZM49.05-4.98L49.05-24.12 53.05-24.12 53.05 0 50.24 0 49.39-2.03Q44.77 0.49 40.87 0.49L40.87 0.49Q38.89 0.49 37.42-0.13 35.96-0.76 35.15-1.68 34.35-2.61 33.86-4.04 33.37-5.47 33.24-6.76 33.1-8.06 33.1-9.72L33.1-9.72 33.1-24.12 37.11-24.12 37.11-9.42Q37.11-3.1 42.6-3.1L42.6-3.1Q45.43-3.1 49.05-4.98L49.05-4.98ZM74.09-3.15L74.65-0.42Q71.11 0.49 69.14 0.49 67.16 0.49 65.79-0.15 64.42-0.78 63.72-1.95 63.01-3.13 62.7-4.48 62.4-5.83 62.4-7.59L62.4-7.59 62.4-20.97 59.15-20.97 59.15-24.12 62.4-24.12 62.4-31.03 66.4-31.03 66.4-24.12 73.75-24.12 73.75-20.97 66.4-20.97 66.4-7.64Q66.4-2.64 70.36-2.64L70.36-2.64Q71.06-2.64 74.09-3.15L74.09-3.15ZM83.56-24.12L84.32-22.31Q87.37-24.58 91.06-24.58L91.06-24.58Q93.6-24.58 95.67-23.63L95.67-23.63 94.45-20.43Q92.55-21.17 90.5-21.17L90.5-21.17Q87.44-21.17 84.76-19.48L84.76-19.48 84.76 0 80.75 0 80.75-24.12 83.56-24.12ZM99.94-30.08L99.94-34.69 104.68-34.69 104.68-30.08 99.94-30.08ZM100.31 0L100.31-24.12 104.31-24.12 104.31 0 100.31 0ZM124.87-31.54L124.87-31.54Q123.43-31.54 122.38-31.14 121.33-30.74 120.8-30.21 120.28-29.69 119.97-28.94 119.67-28.2 119.6-27.72 119.54-27.25 119.54-26.73L119.54-26.73 119.54-24.12 127.62-24.12 127.62-20.97 119.54-20.97 119.54 0 115.49 0 115.49-20.97 112-20.97 112-24.12 115.49-24.12 115.49-26.56Q115.49-29.74 116.44-31.4L116.44-31.4Q117.39-33.08 119.25-33.98 121.11-34.89 123.55-34.89L123.55-34.89Q126.16-34.89 129.33-33.94L129.33-33.94 128.72-30.96Q126.45-31.54 124.87-31.54ZM132.75-30.08L132.75-34.69 137.49-34.69 137.49-30.08 132.75-30.08ZM133.11 0L133.11-24.12 137.12-24.12 137.12 0 133.11 0ZM158.16-3.15L158.72-0.42Q155.18 0.49 153.21 0.49 151.23 0.49 149.86-0.15 148.49-0.78 147.79-1.95 147.08-3.13 146.77-4.48 146.47-5.83 146.47-7.59L146.47-7.59 146.47-20.97 143.22-20.97 143.22-24.12 146.47-24.12 146.47-31.03 150.47-31.03 150.47-24.12 157.82-24.12 157.82-20.97 150.47-20.97 150.47-7.64Q150.47-2.64 154.43-2.64L154.43-2.64Q155.13-2.64 158.16-3.15L158.16-3.15Z" opacity="1" transform="matrix(1,0,0,1,0,0)" fill="#1e55b3" class="undefined-text-0" data-fill-palette-color="primary" id="text-0"></path></svg></g></svg></g><g transform="matrix(1,0,0,1,75.54432,112.05403946923126)"><svg viewBox="0 0 244.43135999999998 17.192867285243935" height="17.192867285243935" width="244.43135999999998"><g transform="matrix(1,0,0,1,0,0)"><svg width="244.43135999999998" viewBox="4.400000095367432 -37 668.1199951171875 47" height="17.192867285243935" data-palette-color="#ff585f"><path d="M30.3-35L30.3-35Q31.15-35 31.65-34.48 32.15-33.95 32.15-33.15L32.15-33.15 32.15-2.1Q32.15-1.15 31.55-0.58 30.95 0 30.1 0L30.1 0Q29.65 0 29.2-0.18 28.75-0.35 28.5-0.65L28.5-0.65 7.1-28.95 8.1-29.55 8.1-1.85Q8.1-1.05 7.58-0.53 7.05 0 6.2 0L6.2 0Q5.4 0 4.9-0.53 4.4-1.05 4.4-1.85L4.4-1.85 4.4-33Q4.4-33.9 4.98-34.45 5.55-35 6.35-35L6.35-35Q6.8-35 7.28-34.83 7.75-34.65 8-34.3L8-34.3 29.1-6.4 28.45-5.6 28.45-33.15Q28.45-33.95 28.98-34.48 29.5-35 30.3-35ZM59.55-25.85L59.55-25.85Q60.45-25.85 61-25.28 61.55-24.7 61.55-23.85L61.55-23.85 61.55-10.2Q61.55-5.15 58.72-2.38 55.9 0.4 50.85 0.4L50.85 0.4Q45.85 0.4 43.02-2.38 40.2-5.15 40.2-10.2L40.2-10.2 40.2-23.85Q40.2-24.7 40.77-25.28 41.35-25.85 42.2-25.85L42.2-25.85Q43.1-25.85 43.65-25.28 44.2-24.7 44.2-23.85L44.2-23.85 44.2-10.2Q44.2-6.8 45.95-5.05 47.7-3.3 50.85-3.3L50.85-3.3Q54.1-3.3 55.82-5.05 57.55-6.8 57.55-10.2L57.55-10.2 57.55-23.85Q57.55-24.7 58.12-25.28 58.7-25.85 59.55-25.85ZM67.95-25.7L67.95-25.7 79.7-25.7Q80.5-25.7 81.02-25.15 81.55-24.6 81.55-23.85L81.55-23.85Q81.55-23.05 81.02-22.53 80.5-22 79.7-22L79.7-22 67.95-22Q67.2-22 66.65-22.55 66.09-23.1 66.09-23.9L66.09-23.9Q66.09-24.65 66.65-25.18 67.2-25.7 67.95-25.7ZM73.2-32.5L73.2-32.5Q74.05-32.5 74.59-31.93 75.15-31.35 75.15-30.5L75.15-30.5 75.15-6.35Q75.15-5.15 75.5-4.55 75.84-3.95 76.42-3.73 77-3.5 77.55-3.5L77.55-3.5Q78.05-3.5 78.42-3.68 78.8-3.85 79.3-3.85L79.3-3.85Q79.8-3.85 80.22-3.38 80.65-2.9 80.65-2.15L80.65-2.15Q80.65-1.25 79.59-0.63 78.55 0 77.25 0L77.25 0Q76.55 0 75.52-0.1 74.5-0.2 73.5-0.75 72.5-1.3 71.82-2.58 71.15-3.85 71.15-6.15L71.15-6.15 71.15-30.5Q71.15-31.35 71.75-31.93 72.34-32.5 73.2-32.5ZM89.09 0L89.09 0Q88.24 0 87.67-0.6 87.09-1.2 87.09-2.05L87.09-2.05 87.09-23.85Q87.09-24.7 87.67-25.28 88.24-25.85 89.09-25.85L89.09-25.85Q89.99-25.85 90.54-25.28 91.09-24.7 91.09-23.85L91.09-23.85 91.09-17.25 90.49-18.3Q90.79-19.85 91.57-21.33 92.34-22.8 93.54-23.98 94.74-25.15 96.29-25.83 97.84-26.5 99.69-26.5L99.69-26.5Q100.79-26.5 101.72-25.98 102.64-25.45 102.64-24.5L102.64-24.5Q102.64-23.45 102.09-22.95 101.54-22.45 100.84-22.45L100.84-22.45Q100.19-22.45 99.59-22.73 98.99-23 98.09-23L98.09-23Q96.84-23 95.62-22.33 94.39-21.65 93.37-20.4 92.34-19.15 91.72-17.57 91.09-16 91.09-14.2L91.09-14.2 91.09-2.05Q91.09-1.2 90.52-0.6 89.94 0 89.09 0ZM110.99-24.25L110.99-2.05Q110.99-1.2 110.42-0.6 109.84 0 108.99 0L108.99 0Q108.09 0 107.54-0.6 106.99-1.2 106.99-2.05L106.99-2.05 106.99-24.25Q106.99-25.1 107.57-25.68 108.14-26.25 108.99-26.25L108.99-26.25Q109.84-26.25 110.42-25.68 110.99-25.1 110.99-24.25L110.99-24.25ZM108.99-29.6L108.99-29.6Q107.74-29.6 107.14-30.1 106.54-30.6 106.54-31.65L106.54-31.65 106.54-32.35Q106.54-33.4 107.19-33.9 107.84-34.4 109.04-34.4L109.04-34.4Q110.24-34.4 110.84-33.9 111.44-33.4 111.44-32.35L111.44-32.35 111.44-31.65Q111.44-30.6 110.82-30.1 110.19-29.6 108.99-29.6ZM128.99-36.9L128.99-36.9Q129.84-36.9 130.76-36.7 131.69-36.5 132.36-36 133.04-35.5 133.04-34.65L133.04-34.65Q133.04-33.85 132.54-33.33 132.04-32.8 131.34-32.8L131.34-32.8Q130.89-32.8 130.09-33.08 129.29-33.35 128.44-33.35L128.44-33.35Q127.29-33.35 126.56-32.85 125.84-32.35 125.51-31.53 125.19-30.7 125.19-29.7L125.19-29.7 125.19-2.05Q125.19-1.2 124.61-0.6 124.04 0 123.19 0L123.19 0Q122.29 0 121.74-0.6 121.19-1.2 121.19-2.05L121.19-2.05 121.19-29.65Q121.19-33 123.26-34.95 125.34-36.9 128.99-36.9ZM117.84-25.45L130.39-25.45Q131.19-25.45 131.74-24.93 132.29-24.4 132.29-23.6L132.29-23.6Q132.29-22.8 131.74-22.28 131.19-21.75 130.39-21.75L130.39-21.75 117.84-21.75Q117.04-21.75 116.49-22.3 115.94-22.85 115.94-23.6L115.94-23.6Q115.94-24.45 116.49-24.95 117.04-25.45 117.84-25.45L117.84-25.45ZM140.79-24.25L140.79-2.05Q140.79-1.2 140.21-0.6 139.64 0 138.79 0L138.79 0Q137.89 0 137.34-0.6 136.79-1.2 136.79-2.05L136.79-2.05 136.79-24.25Q136.79-25.1 137.36-25.68 137.94-26.25 138.79-26.25L138.79-26.25Q139.64-26.25 140.21-25.68 140.79-25.1 140.79-24.25L140.79-24.25ZM138.79-29.6L138.79-29.6Q137.54-29.6 136.94-30.1 136.34-30.6 136.34-31.65L136.34-31.65 136.34-32.35Q136.34-33.4 136.99-33.9 137.64-34.4 138.84-34.4L138.84-34.4Q140.04-34.4 140.64-33.9 141.24-33.4 141.24-32.35L141.24-32.35 141.24-31.65Q141.24-30.6 140.61-30.1 139.99-29.6 138.79-29.6ZM146.98-25.7L146.98-25.7 158.73-25.7Q159.53-25.7 160.06-25.15 160.58-24.6 160.58-23.85L160.58-23.85Q160.58-23.05 160.06-22.53 159.53-22 158.73-22L158.73-22 146.98-22Q146.23-22 145.68-22.55 145.13-23.1 145.13-23.9L145.13-23.9Q145.13-24.65 145.68-25.18 146.23-25.7 146.98-25.7ZM152.23-32.5L152.23-32.5Q153.08-32.5 153.63-31.93 154.18-31.35 154.18-30.5L154.18-30.5 154.18-6.35Q154.18-5.15 154.53-4.55 154.88-3.95 155.46-3.73 156.03-3.5 156.58-3.5L156.58-3.5Q157.08-3.5 157.46-3.68 157.83-3.85 158.33-3.85L158.33-3.85Q158.83-3.85 159.26-3.38 159.68-2.9 159.68-2.15L159.68-2.15Q159.68-1.25 158.63-0.63 157.58 0 156.28 0L156.28 0Q155.58 0 154.56-0.1 153.53-0.2 152.53-0.75 151.53-1.3 150.86-2.58 150.18-3.85 150.18-6.15L150.18-6.15 150.18-30.5Q150.18-31.35 150.78-31.93 151.38-32.5 152.23-32.5ZM168.03-20.4L167.63-20.4Q166.58-20.4 166.01-21.03 165.43-21.65 165.43-22.7L165.43-22.7 165.43-23.7Q165.43-24.75 166.01-25.35 166.58-25.95 167.63-25.95L167.63-25.95 168.03-25.95Q169.13-25.95 169.68-25.35 170.23-24.75 170.23-23.7L170.23-23.7 170.23-22.7Q170.23-21.65 169.68-21.03 169.13-20.4 168.03-20.4L168.03-20.4ZM168.03 0L167.63 0Q166.58 0 166.01-0.63 165.43-1.25 165.43-2.3L165.43-2.3 165.43-3.3Q165.43-4.35 166.01-4.95 166.58-5.55 167.63-5.55L167.63-5.55 168.03-5.55Q169.13-5.55 169.68-4.95 170.23-4.35 170.23-3.3L170.23-3.3 170.23-2.3Q170.23-1.25 169.68-0.63 169.13 0 168.03 0L168.03 0ZM207.33 0.5L207.33 0.5Q203.48 0.5 200.2-0.88 196.93-2.25 194.45-4.7 191.98-7.15 190.6-10.43 189.23-13.7 189.23-17.5L189.23-17.5Q189.23-21.35 190.6-24.63 191.98-27.9 194.45-30.35 196.93-32.8 200.2-34.15 203.48-35.5 207.33-35.5L207.33-35.5Q209.88-35.5 212.25-34.93 214.63-34.35 216.58-33.15L216.58-33.15Q217.08-32.9 217.3-32.45 217.53-32 217.53-31.5L217.53-31.5Q217.53-30.65 216.95-30.05 216.38-29.45 215.63-29.45L215.63-29.45Q215.33-29.45 215.05-29.55 214.78-29.65 214.48-29.75L214.48-29.75Q212.93-30.55 211.13-31.03 209.33-31.5 207.33-31.5L207.33-31.5Q203.38-31.5 200.25-29.65 197.13-27.8 195.33-24.65 193.53-21.5 193.53-17.5L193.53-17.5Q193.53-13.55 195.33-10.38 197.13-7.2 200.25-5.35 203.38-3.5 207.33-3.5L207.33-3.5Q209.33-3.5 211.45-4.05 213.58-4.6 215.08-5.45L215.08-5.45 214.73-4.25 214.73-14.8 215.53-14.1 207.88-14.1Q207.03-14.1 206.45-14.68 205.88-15.25 205.88-16.1L205.88-16.1Q205.88-16.95 206.45-17.53 207.03-18.1 207.88-18.1L207.88-18.1 216.98-18.1Q217.88-18.1 218.43-17.5 218.98-16.9 218.98-16.05L218.98-16.05 218.98-4.5Q218.98-3.9 218.7-3.45 218.43-3 217.98-2.7L217.98-2.7Q215.73-1.25 213-0.38 210.28 0.5 207.33 0.5ZM249.72-13L249.72-13Q249.72-9.1 248.02-6.05 246.32-3 243.4-1.25 240.47 0.5 236.77 0.5L236.77 0.5Q233.12 0.5 230.2-1.25 227.27-3 225.55-6.05 223.82-9.1 223.82-13L223.82-13Q223.82-16.9 225.55-19.95 227.27-23 230.2-24.75 233.12-26.5 236.77-26.5L236.77-26.5Q240.47-26.5 243.4-24.75 246.32-23 248.02-19.95 249.72-16.9 249.72-13ZM245.72-13L245.72-13Q245.72-15.9 244.55-18.1 243.37-20.3 241.35-21.55 239.32-22.8 236.77-22.8L236.77-22.8Q234.27-22.8 232.22-21.55 230.17-20.3 229-18.1 227.82-15.9 227.82-13L227.82-13Q227.82-10.15 229-7.95 230.17-5.75 232.22-4.48 234.27-3.2 236.77-3.2L236.77-3.2Q239.32-3.2 241.35-4.48 243.37-5.75 244.55-7.95 245.72-10.15 245.72-13ZM279.82-13L279.82-13Q279.82-9.1 278.12-6.05 276.42-3 273.5-1.25 270.57 0.5 266.87 0.5L266.87 0.5Q263.22 0.5 260.3-1.25 257.37-3 255.65-6.05 253.92-9.1 253.92-13L253.92-13Q253.92-16.9 255.65-19.95 257.37-23 260.3-24.75 263.22-26.5 266.87-26.5L266.87-26.5Q270.57-26.5 273.5-24.75 276.42-23 278.12-19.95 279.82-16.9 279.82-13ZM275.82-13L275.82-13Q275.82-15.9 274.65-18.1 273.47-20.3 271.45-21.55 269.42-22.8 266.87-22.8L266.87-22.8Q264.37-22.8 262.32-21.55 260.27-20.3 259.1-18.1 257.92-15.9 257.92-13L257.92-13Q257.92-10.15 259.1-7.95 260.27-5.75 262.32-4.48 264.37-3.2 266.87-3.2L266.87-3.2Q269.42-3.2 271.45-4.48 273.47-5.75 274.65-7.95 275.82-10.15 275.82-13ZM306.67-37L306.67-37Q307.57-37 308.12-36.43 308.67-35.85 308.67-35L308.67-35 308.67-2.05Q308.67-1.2 308.09-0.6 307.52 0 306.67 0L306.67 0Q305.82 0 305.24-0.6 304.67-1.2 304.67-2.05L304.67-2.05 304.67-6.8 305.62-7.15Q305.62-5.95 304.89-4.63 304.17-3.3 302.84-2.15 301.52-1 299.77-0.25 298.02 0.5 295.97 0.5L295.97 0.5Q292.57 0.5 289.87-1.25 287.17-3 285.59-6.05 284.02-9.1 284.02-13L284.02-13Q284.02-16.95 285.59-20 287.17-23.05 289.84-24.78 292.52-26.5 295.87-26.5L295.87-26.5Q297.97-26.5 299.79-25.8 301.62-25.1 303.02-23.9 304.42-22.7 305.19-21.25 305.97-19.8 305.97-18.35L305.97-18.35 304.67-18.65 304.67-35Q304.67-35.85 305.24-36.43 305.82-37 306.67-37ZM296.37-3.2L296.37-3.2Q298.92-3.2 300.82-4.48 302.72-5.75 303.82-7.98 304.92-10.2 304.92-13L304.92-13Q304.92-15.85 303.82-18.05 302.72-20.25 300.79-21.53 298.87-22.8 296.37-22.8L296.37-22.8Q293.92-22.8 291.99-21.53 290.07-20.25 288.97-18.05 287.87-15.85 287.87-13L287.87-13Q287.87-10.25 288.97-8.03 290.07-5.8 291.99-4.5 293.92-3.2 296.37-3.2ZM340.61-36.9L340.61-36.9Q341.46-36.9 342.39-36.7 343.31-36.5 343.99-36 344.66-35.5 344.66-34.65L344.66-34.65Q344.66-33.85 344.16-33.33 343.66-32.8 342.96-32.8L342.96-32.8Q342.51-32.8 341.71-33.08 340.91-33.35 340.06-33.35L340.06-33.35Q338.91-33.35 338.19-32.85 337.46-32.35 337.14-31.53 336.81-30.7 336.81-29.7L336.81-29.7 336.81-2.05Q336.81-1.2 336.24-0.6 335.66 0 334.81 0L334.81 0Q333.91 0 333.36-0.6 332.81-1.2 332.81-2.05L332.81-2.05 332.81-29.65Q332.81-33 334.89-34.95 336.96-36.9 340.61-36.9ZM329.46-25.45L342.01-25.45Q342.81-25.45 343.36-24.93 343.91-24.4 343.91-23.6L343.91-23.6Q343.91-22.8 343.36-22.28 342.81-21.75 342.01-21.75L342.01-21.75 329.46-21.75Q328.66-21.75 328.11-22.3 327.56-22.85 327.56-23.6L327.56-23.6Q327.56-24.45 328.11-24.95 328.66-25.45 329.46-25.45L329.46-25.45ZM372.86-13L372.86-13Q372.86-9.1 371.16-6.05 369.46-3 366.54-1.25 363.61 0.5 359.91 0.5L359.91 0.5Q356.26 0.5 353.34-1.25 350.41-3 348.69-6.05 346.96-9.1 346.96-13L346.96-13Q346.96-16.9 348.69-19.95 350.41-23 353.34-24.75 356.26-26.5 359.91-26.5L359.91-26.5Q363.61-26.5 366.54-24.75 369.46-23 371.16-19.95 372.86-16.9 372.86-13ZM368.86-13L368.86-13Q368.86-15.9 367.69-18.1 366.51-20.3 364.49-21.55 362.46-22.8 359.91-22.8L359.91-22.8Q357.41-22.8 355.36-21.55 353.31-20.3 352.14-18.1 350.96-15.9 350.96-13L350.96-13Q350.96-10.15 352.14-7.95 353.31-5.75 355.36-4.48 357.41-3.2 359.91-3.2L359.91-3.2Q362.46-3.2 364.49-4.48 366.51-5.75 367.69-7.95 368.86-10.15 368.86-13ZM402.96-13L402.96-13Q402.96-9.1 401.26-6.05 399.56-3 396.63-1.25 393.71 0.5 390.01 0.5L390.01 0.5Q386.36 0.5 383.43-1.25 380.51-3 378.78-6.05 377.06-9.1 377.06-13L377.06-13Q377.06-16.9 378.78-19.95 380.51-23 383.43-24.75 386.36-26.5 390.01-26.5L390.01-26.5Q393.71-26.5 396.63-24.75 399.56-23 401.26-19.95 402.96-16.9 402.96-13ZM398.96-13L398.96-13Q398.96-15.9 397.78-18.1 396.61-20.3 394.58-21.55 392.56-22.8 390.01-22.8L390.01-22.8Q387.51-22.8 385.46-21.55 383.41-20.3 382.23-18.1 381.06-15.9 381.06-13L381.06-13Q381.06-10.15 382.23-7.95 383.41-5.75 385.46-4.48 387.51-3.2 390.01-3.2L390.01-3.2Q392.56-3.2 394.58-4.48 396.61-5.75 397.78-7.95 398.96-10.15 398.96-13ZM429.81-37L429.81-37Q430.71-37 431.26-36.43 431.81-35.85 431.81-35L431.81-35 431.81-2.05Q431.81-1.2 431.23-0.6 430.66 0 429.81 0L429.81 0Q428.96 0 428.38-0.6 427.81-1.2 427.81-2.05L427.81-2.05 427.81-6.8 428.76-7.15Q428.76-5.95 428.03-4.63 427.31-3.3 425.98-2.15 424.66-1 422.91-0.25 421.16 0.5 419.11 0.5L419.11 0.5Q415.71 0.5 413.01-1.25 410.31-3 408.73-6.05 407.16-9.1 407.16-13L407.16-13Q407.16-16.95 408.73-20 410.31-23.05 412.98-24.78 415.66-26.5 419.01-26.5L419.01-26.5Q421.11-26.5 422.93-25.8 424.76-25.1 426.16-23.9 427.56-22.7 428.33-21.25 429.11-19.8 429.11-18.35L429.11-18.35 427.81-18.65 427.81-35Q427.81-35.85 428.38-36.43 428.96-37 429.81-37ZM419.51-3.2L419.51-3.2Q422.06-3.2 423.96-4.48 425.86-5.75 426.96-7.98 428.06-10.2 428.06-13L428.06-13Q428.06-15.85 426.96-18.05 425.86-20.25 423.93-21.53 422.01-22.8 419.51-22.8L419.51-22.8Q417.06-22.8 415.13-21.53 413.21-20.25 412.11-18.05 411.01-15.85 411.01-13L411.01-13Q411.01-10.25 412.11-8.03 413.21-5.8 415.13-4.5 417.06-3.2 419.51-3.2ZM444.3-0.25L444.3-0.25Q444.3 0.75 443.88 1.88 443.45 3 442.7 4 441.95 5 441.05 5.63 440.15 6.25 439.25 6.25L439.25 6.25Q438.55 6.25 438.08 5.93 437.6 5.6 437.6 4.85L437.6 4.85Q437.6 3.9 438.23 3.75 438.85 3.6 439.45 3.3L439.45 3.3Q440.1 2.95 440.48 2.33 440.85 1.7 440.85 1L440.85 1Q440.85 0.45 440.48 0.08 440.1-0.3 439.5-0.3L439.5-0.3Q439.15-0.3 438.78-0.2 438.4-0.1 438.15 0.1L438.15 0.1Q437.8-0.15 437.55-0.5 437.3-0.85 437.3-1.4L437.3-1.4Q437.35-2.15 437.88-2.75 438.4-3.35 439.23-3.7 440.05-4.05 440.8-4.05L440.8-4.05Q442.35-4.05 443.33-3.08 444.3-2.1 444.3-0.25ZM474.6-26.5L474.6-26.5Q476.8-26.5 478.65-25.78 480.5-25.05 481.87-23.9 483.25-22.75 484.02-21.5 484.8-20.25 484.8-19.15L484.8-19.15 483.8-19.75 483.8-24.1Q483.8-24.95 484.37-25.53 484.95-26.1 485.8-26.1L485.8-26.1Q486.7-26.1 487.25-25.53 487.8-24.95 487.8-24.1L487.8-24.1 487.8-2.2Q487.8 1.9 486.07 4.6 484.35 7.3 481.45 8.65 478.55 10 475 10L475 10Q473.5 10 471.67 9.6 469.85 9.2 468.45 8.63 467.05 8.05 466.7 7.45L466.7 7.45Q465.95 6.95 465.77 6.33 465.6 5.7 465.95 5.15L465.95 5.15Q466.45 4.45 467.15 4.45 467.85 4.45 468.95 4.9L468.95 4.9Q469.45 5.05 470.4 5.4 471.35 5.75 472.6 6.03 473.85 6.3 475.05 6.3L475.05 6.3Q479.3 6.3 481.55 4.08 483.8 1.85 483.8-1.8L483.8-1.8 483.8-6.45 484.35-6.2Q484.05-4.8 483.15-3.6 482.25-2.4 480.92-1.48 479.6-0.55 477.97-0.03 476.35 0.5 474.7 0.5L474.7 0.5Q471.2 0.5 468.42-1.25 465.65-3 464.02-6.05 462.4-9.1 462.4-13L462.4-13Q462.4-16.95 464.02-20 465.65-23.05 468.4-24.78 471.15-26.5 474.6-26.5ZM475.15-22.8L475.15-22.8Q472.55-22.8 470.55-21.53 468.55-20.25 467.4-18.05 466.25-15.85 466.25-13L466.25-13Q466.25-10.25 467.4-8.03 468.55-5.8 470.55-4.5 472.55-3.2 475.15-3.2L475.15-3.2Q477.75-3.2 479.75-4.48 481.75-5.75 482.9-7.95 484.05-10.15 484.05-13L484.05-13Q484.05-15.9 482.9-18.1 481.75-20.3 479.75-21.55 477.75-22.8 475.15-22.8ZM518.5-13L518.5-13Q518.5-9.1 516.8-6.05 515.1-3 512.17-1.25 509.25 0.5 505.55 0.5L505.55 0.5Q501.9 0.5 498.97-1.25 496.05-3 494.32-6.05 492.6-9.1 492.6-13L492.6-13Q492.6-16.9 494.32-19.95 496.05-23 498.97-24.75 501.9-26.5 505.55-26.5L505.55-26.5Q509.25-26.5 512.17-24.75 515.1-23 516.8-19.95 518.5-16.9 518.5-13ZM514.5-13L514.5-13Q514.5-15.9 513.32-18.1 512.15-20.3 510.12-21.55 508.1-22.8 505.55-22.8L505.55-22.8Q503.05-22.8 501-21.55 498.95-20.3 497.77-18.1 496.6-15.9 496.6-13L496.6-13Q496.6-10.15 497.77-7.95 498.95-5.75 501-4.48 503.05-3.2 505.55-3.2L505.55-3.2Q508.1-3.2 510.12-4.48 512.15-5.75 513.32-7.95 514.5-10.15 514.5-13ZM548.59-13L548.59-13Q548.59-9.1 546.89-6.05 545.19-3 542.27-1.25 539.34 0.5 535.64 0.5L535.64 0.5Q531.99 0.5 529.07-1.25 526.14-3 524.42-6.05 522.69-9.1 522.69-13L522.69-13Q522.69-16.9 524.42-19.95 526.14-23 529.07-24.75 531.99-26.5 535.64-26.5L535.64-26.5Q539.34-26.5 542.27-24.75 545.19-23 546.89-19.95 548.59-16.9 548.59-13ZM544.59-13L544.59-13Q544.59-15.9 543.42-18.1 542.24-20.3 540.22-21.55 538.19-22.8 535.64-22.8L535.64-22.8Q533.14-22.8 531.09-21.55 529.04-20.3 527.87-18.1 526.69-15.9 526.69-13L526.69-13Q526.69-10.15 527.87-7.95 529.04-5.75 531.09-4.48 533.14-3.2 535.64-3.2L535.64-3.2Q538.19-3.2 540.22-4.48 542.24-5.75 543.42-7.95 544.59-10.15 544.59-13ZM575.44-37L575.44-37Q576.34-37 576.89-36.43 577.44-35.85 577.44-35L577.44-35 577.44-2.05Q577.44-1.2 576.87-0.6 576.29 0 575.44 0L575.44 0Q574.59 0 574.02-0.6 573.44-1.2 573.44-2.05L573.44-2.05 573.44-6.8 574.39-7.15Q574.39-5.95 573.67-4.63 572.94-3.3 571.62-2.15 570.29-1 568.54-0.25 566.79 0.5 564.74 0.5L564.74 0.5Q561.34 0.5 558.64-1.25 555.94-3 554.37-6.05 552.79-9.1 552.79-13L552.79-13Q552.79-16.95 554.37-20 555.94-23.05 558.62-24.78 561.29-26.5 564.64-26.5L564.64-26.5Q566.74-26.5 568.57-25.8 570.39-25.1 571.79-23.9 573.19-22.7 573.97-21.25 574.74-19.8 574.74-18.35L574.74-18.35 573.44-18.65 573.44-35Q573.44-35.85 574.02-36.43 574.59-37 575.44-37ZM565.14-3.2L565.14-3.2Q567.69-3.2 569.59-4.48 571.49-5.75 572.59-7.98 573.69-10.2 573.69-13L573.69-13Q573.69-15.85 572.59-18.05 571.49-20.25 569.57-21.53 567.64-22.8 565.14-22.8L565.14-22.8Q562.69-22.8 560.77-21.53 558.84-20.25 557.74-18.05 556.64-15.85 556.64-13L556.64-13Q556.64-10.25 557.74-8.03 558.84-5.8 560.77-4.5 562.69-3.2 565.14-3.2ZM602.99-35L602.99-2.05Q602.99-1.2 602.38-0.6 601.78 0 600.93 0L600.93 0Q600.09 0 599.53-0.6 598.99-1.2 598.99-2.05L598.99-2.05 598.99-35Q598.99-35.85 599.56-36.43 600.13-37 600.99-37L600.99-37Q601.88-37 602.43-36.43 602.99-35.85 602.99-35L602.99-35ZM614.58-24.25L614.58-2.05Q614.58-1.2 614.01-0.6 613.43 0 612.58 0L612.58 0Q611.68 0 611.13-0.6 610.58-1.2 610.58-2.05L610.58-2.05 610.58-24.25Q610.58-25.1 611.16-25.68 611.73-26.25 612.58-26.25L612.58-26.25Q613.43-26.25 614.01-25.68 614.58-25.1 614.58-24.25L614.58-24.25ZM612.58-29.6L612.58-29.6Q611.33-29.6 610.73-30.1 610.13-30.6 610.13-31.65L610.13-31.65 610.13-32.35Q610.13-33.4 610.78-33.9 611.43-34.4 612.63-34.4L612.63-34.4Q613.83-34.4 614.43-33.9 615.03-33.4 615.03-32.35L615.03-32.35 615.03-31.65Q615.03-30.6 614.41-30.1 613.78-29.6 612.58-29.6ZM632.58-36.9L632.58-36.9Q633.43-36.9 634.35-36.7 635.28-36.5 635.95-36 636.63-35.5 636.63-34.65L636.63-34.65Q636.63-33.85 636.13-33.33 635.63-32.8 634.93-32.8L634.93-32.8Q634.48-32.8 633.68-33.08 632.88-33.35 632.03-33.35L632.03-33.35Q630.88-33.35 630.15-32.85 629.43-32.35 629.1-31.53 628.78-30.7 628.78-29.7L628.78-29.7 628.78-2.05Q628.78-1.2 628.2-0.6 627.63 0 626.78 0L626.78 0Q625.88 0 625.33-0.6 624.78-1.2 624.78-2.05L624.78-2.05 624.78-29.65Q624.78-33 626.85-34.95 628.93-36.9 632.58-36.9ZM621.43-25.45L633.98-25.45Q634.78-25.45 635.33-24.93 635.88-24.4 635.88-23.6L635.88-23.6Q635.88-22.8 635.33-22.28 634.78-21.75 633.98-21.75L633.98-21.75 621.43-21.75Q620.63-21.75 620.08-22.3 619.53-22.85 619.53-23.6L619.53-23.6Q619.53-24.45 620.08-24.95 620.63-25.45 621.43-25.45L621.43-25.45ZM652.23 0.5L652.23 0.5Q648.23 0.5 645.23-1.2 642.23-2.9 640.58-5.88 638.93-8.85 638.93-12.75L638.93-12.75Q638.93-17.1 640.65-20.18 642.38-23.25 645.13-24.88 647.88-26.5 650.98-26.5L650.98-26.5Q653.33-26.5 655.45-25.65 657.58-24.8 659.25-23.18 660.93-21.55 661.93-19.28 662.93-17 662.98-14.2L662.98-14.2Q662.93-13.4 662.33-12.85 661.73-12.3 660.93-12.3L660.93-12.3 641.18-12.3 640.28-15.75 659.53-15.75 658.73-15.05 658.73-16.15Q658.58-18.2 657.4-19.68 656.23-21.15 654.53-21.95 652.83-22.75 650.98-22.75L650.98-22.75Q649.48-22.75 648-22.23 646.53-21.7 645.35-20.53 644.18-19.35 643.48-17.5 642.78-15.65 642.78-13.05L642.78-13.05Q642.78-10.15 643.95-7.95 645.13-5.75 647.23-4.48 649.33-3.2 652.08-3.2L652.08-3.2Q653.88-3.2 655.18-3.65 656.48-4.1 657.4-4.78 658.33-5.45 658.98-6.15L658.98-6.15Q659.63-6.6 660.28-6.6L660.28-6.6Q660.98-6.6 661.48-6.1 661.98-5.6 661.98-4.9L661.98-4.9Q661.98-4.05 661.18-3.4L661.18-3.4Q659.73-1.85 657.35-0.68 654.98 0.5 652.23 0.5ZM670.32-0.05L669.92-0.05Q668.87-0.05 668.3-0.65 667.72-1.25 667.72-2.3L667.72-2.3 667.72-3.3Q667.72-4.4 668.3-5 668.87-5.6 669.92-5.6L669.92-5.6 670.32-5.6Q671.42-5.6 671.97-5 672.52-4.4 672.52-3.3L672.52-3.3 672.52-2.3Q672.52-1.25 671.97-0.65 671.42-0.05 670.32-0.05L670.32-0.05Z" opacity="1" transform="matrix(1,0,0,1,0,0)" fill="#ff585f" class="undefined-text-1" data-fill-palette-color="secondary" id="text-1"></path></svg></g></svg></g></svg></g></svg></g><g transform="matrix(1,0,0,1,108.48320942390953,0)"><svg viewBox="0 0 178.55358115218093 178.61922513468474" height="178.61922513468474" width="178.55358115218093"><g><svg xmlns="http://www.w3.org/2000/svg" xmlns:xlink="http://www.w3.org/1999/xlink" version="1.1" x="0" y="0" viewBox="0.018204212188720703 0 99.96324920654297 100" enable-background="new 0 0 100 100" xml:space="preserve" height="178.61922513468474" width="178.55358115218093" class="icon-icon-0" data-fill-palette-color="accent" id="icon-0"><g fill="#ff585f" data-fill-palette-color="accent"><path d="M73.428 5.851C66.234 2.019 58.144 0 50.039 0 31.477 0 14.542 10.186 5.846 26.566-7.075 50.918 2.212 81.241 26.562 94.161 33.768 97.979 41.848 100 49.953 100c18.573 0 35.509-10.174 44.204-26.556C107.077 49.095 97.778 18.77 73.428 5.851zM28.003 91.439C5.156 79.307-3.564 50.855 8.556 28.008 16.722 12.637 32.61 3.079 50.039 3.079c7.599 0 15.185 1.896 21.948 5.492 22.849 12.119 31.569 40.572 19.448 63.42-8.166 15.384-24.055 24.93-41.482 24.93C42.353 96.921 34.766 95.024 28.003 91.439z" fill="#ff585f" data-fill-palette-color="accent"></path><path d="M86.386 29.178c-0.42-0.738-1.356-0.998-2.095-0.566-0.738 0.419-0.998 1.368-0.58 2.095 0.112 0.209 0.236 0.406 0.347 0.615 9.582 17.465 4.2 39.672-12.44 50.808-8.438 5.653-18.524 7.746-28.488 5.924-0.234-0.038-0.456-0.073-0.69-0.124-0.825-0.159-1.638 0.382-1.811 1.207-0.172 0.838 0.37 1.65 1.207 1.824 2.771 0.553 5.542 0.825 8.302 0.825 8.204 0 16.22-2.428 23.204-7.095C91.508 72.521 97.236 48.135 86.386 29.178z" fill="#ff585f" data-fill-palette-color="accent"></path><path d="M25.799 80.183c-1.762-1.405-3.4-2.969-4.89-4.682-1.108-1.256-2.144-2.598-3.079-4.003l-1.281 0.863 1.207-0.986C5.969 53.639 10.772 29.561 28.459 17.71c5.481-3.67 11.788-5.874 18.303-6.429 0.197-0.025 0.395-0.037 0.592-0.05 0.85-0.048 1.49-0.787 1.428-1.638-0.062-0.85-0.801-1.489-1.638-1.429-7.267 0.493-14.312 2.907-20.397 6.983C7.656 27.946 2.458 53.935 15.133 72.989c0.049 0.073 0.099 0.159 0.135 0.222 1.022 1.516 2.131 2.969 3.326 4.323 1.749 1.995 3.695 3.843 5.789 5.455 0.271 0.223 0.604 0.32 0.937 0.32 0.468 0 0.911-0.209 1.219-0.591 0.518-0.677 0.395-1.637-0.271-2.167C26.107 80.428 25.947 80.305 25.799 80.183z" fill="#ff585f" data-fill-palette-color="accent"></path><path d="M64.449 13.917c4.359 1.748 8.326 4.237 11.774 7.403 0.295 0.271 0.678 0.405 1.047 0.405 0.42 0 0.826-0.171 1.134-0.504 0.577-0.616 0.529-1.602-0.099-2.169-3.72-3.423-8.006-6.108-12.711-7.993-0.801-0.32-1.688 0.062-2.009 0.851C63.278 12.71 63.66 13.597 64.449 13.917z" fill="#ff585f" data-fill-palette-color="accent"></path></g><path d="M42.932 69.048c-0.32-1.959-1.798-3.523-3.633-4.028-0.024-0.381-0.049-0.763-0.062-1.145-0.012-0.518-0.012-1.059 0-1.614 0.025-0.565 0.062-1.134 0.099-1.699 0.111-1.184 0.284-2.316 0.505-3.375 0.221-0.998 0.517-2.032 0.862-2.98l0.924-2.144c0.123-0.246 0.234-0.431 0.308-0.566 0-0.013 0.123-0.21 0.136-0.223 3.251-5.319 2.044-12.131-2.599-16.023-0.468-0.395-0.96-0.751-1.502-1.084-1.959-1.206-4.212-1.848-6.504-1.848-4.36 0-8.326 2.229-10.617 5.938-3.215 5.26-2.069 12.169 2.636 16.062 0.013 0.012 0.111 0.099 0.123 0.099l0.099 0.086c0.111 0.111 0.283 0.258 0.493 0.467l1.552 1.713c0.616 0.775 1.231 1.65 1.773 2.55 0.554 0.924 1.084 1.934 1.564 3.017 0.221 0.529 0.443 1.06 0.641 1.577 0.196 0.53 0.369 1.034 0.517 1.54 0.012 0.037 0.024 0.061 0.037 0.099l-0.504 1.649c-1.097 1.121-1.626 2.71-1.355 4.337 0 0.023 0.012 0.048 0.012 0.073 0.395 2.155 2.18 3.843 4.36 4.102 0.197 0.012 0.395 0.025 0.591 0.025 0.271 0 0.542-0.014 0.813-0.062 0.813-0.135 1.564-0.455 2.205-0.937 0.764 0.247 1.564 0.309 2.39 0.174 0.468-0.075 0.911-0.223 1.342-0.42C42.143 73.444 43.289 71.24 42.932 69.048zM38.805 71.622c-0.16 0.085-0.333 0.136-0.517 0.172-0.48 0.074-0.96-0.024-1.355-0.283-0.665-0.419-1.54-0.271-2.032 0.334-0.295 0.38-0.727 0.628-1.194 0.701-0.185 0.037-0.37 0.037-0.554 0.012-0.85-0.098-1.552-0.764-1.688-1.613-0.147-0.888 0.345-1.786 1.195-2.119l0.123-0.048c0.751-0.234 1.194-0.986 1.046-1.763-0.16-0.825-0.369-1.688-0.64-2.548-0.173-0.568-0.357-1.134-0.579-1.726-0.222-0.566-0.456-1.145-0.702-1.725-0.049-0.123-0.111-0.233-0.172-0.344V60.66c-0.493-1.085-1.01-2.095-1.577-3.019-0.616-1.009-1.305-2.007-2.02-2.895l-1.564-1.761-0.234-0.233c-0.259-0.247-0.469-0.444-0.604-0.556l-0.259-0.221c-3.56-2.957-4.421-8.153-1.995-12.107 1.712-2.796 4.693-4.472 7.981-4.472 1.725 0 3.412 0.48 4.89 1.392 0.813 0.493 1.515 1.098 2.106 1.774 2.661 3.006 3.189 7.501 1.022 11.036-0.012 0.023-0.086 0.135-0.099 0.16l-0.099 0.159c-0.099 0.174-0.246 0.431-0.394 0.727-0.062 0.111-0.111 0.222-0.173 0.346l-0.579 1.317c-0.012 0.013-0.049 0.123-0.062 0.148l-0.271 0.689c-0.382 1.084-0.727 2.254-0.973 3.388-0.258 1.182-0.444 2.449-0.566 3.768-0.049 0.628-0.086 1.244-0.111 1.86-0.012 0.615-0.012 1.22 0 1.799 0.038 0.887 0.099 1.773 0.222 2.636 0.11 0.775 0.776 1.342 1.564 1.33l0.062-1.54 0.074 1.54c0.899 0.05 1.663 0.727 1.811 1.625C40.037 70.402 39.594 71.253 38.805 71.622z" fill="#ff585f" data-fill-palette-color="accent"></path><path d="M57.133 59.588c0.727 1.552 1.934 2.834 3.448 3.635 0.11 0.061 0.233 0.123 0.344 0.171 1.455 0.679 3.104 0.899 4.682 0.641 0.899 0.333 1.823 0.506 2.783 0.506 0.777 0 1.552-0.124 2.304-0.346 1.639-0.505 3.067-1.527 4.076-2.918 2.181-0.53 4.065-1.984 5.124-3.979 1.097-2.045 1.22-4.484 0.358-6.64 0.368-1.416 0.344-2.895-0.087-4.312-0.604-1.958-1.934-3.571-3.658-4.556-0.542-0.309-1.109-0.555-1.712-0.727-0.543-0.506-1.133-0.936-1.774-1.282-1.527-0.813-3.312-1.096-5.025-0.813-1.612-0.603-3.411-0.664-5.073-0.146-0.702 0.209-1.367 0.518-1.983 0.924-2.647 0.233-5.025 1.798-6.27 4.163-0.702 1.305-1.01 2.746-0.911 4.226-1.244 1.944-1.589 4.358-0.911 6.589C53.513 56.879 55.088 58.652 57.133 59.588zM57.379 45.35c0.813-1.526 2.39-2.5 4.126-2.562 0.32 0 0.616-0.111 0.875-0.295 0.443-0.333 0.923-0.58 1.44-0.728 1.121-0.346 2.315-0.271 3.4 0.21 0.308 0.147 0.652 0.171 0.984 0.098 1.146-0.271 2.34-0.122 3.375 0.432 0.469 0.246 0.899 0.579 1.282 0.997 0.209 0.223 0.491 0.382 0.786 0.444 0.358 0.087 0.715 0.209 1.036 0.369 1.206 0.566 2.142 1.639 2.536 2.932 0.296 0.984 0.284 2.021-0.062 3.004-0.136 0.395-0.11 0.825 0.074 1.196 0.69 1.392 0.666 3.042-0.061 4.409-0.715 1.366-2.021 2.278-3.561 2.512-0.456 0.062-0.862 0.333-1.097 0.728-0.616 1.034-1.588 1.798-2.721 2.155-1.121 0.333-2.329 0.259-3.399-0.223-0.197-0.099-0.42-0.135-0.629-0.135-0.124 0-0.247 0.013-0.357 0.036-0.874 0.21-1.772 0.174-2.623-0.11-0.259-0.085-0.518-0.197-0.764-0.32-1.047-0.553-1.848-1.49-2.267-2.623-0.16-0.432-0.505-0.764-0.936-0.924-1.466-0.517-2.574-1.663-3.03-3.141-0.443-1.479-0.159-3.104 0.788-4.335 0.247-0.333 0.357-0.752 0.296-1.158C56.727 47.283 56.899 46.262 57.379 45.35z" fill="#ff585f" data-fill-palette-color="accent"></path></svg></g></svg></g><g></g></svg></g><defs></defs></svg><rect width="296.93987908988464" height="247.2" fill="none" stroke="none" visibility="hidden"></rect></g></svg></g></svg>